**ABCDEFGHIJKLMNOPQRSTUVWXYZabcdefghijklmnopqrstuvwxyz**************************
**PARASOLID !"#$%&'()*+,-./:;<=>?@[\]^_`{|}~0123456789**************************
**PART1;
MC=x86;
MC_MODEL=x86 Family 6 Model 23 Stepping 6, GenuineIntel;
MC_ID=unknown;
OS=Windows_NT;
OS_RELEASE=unknown;
FRU=Parasolid Version 22.1, build 256, 12- 1-2010;
APPL=SolidWorks 2011-2011006;
SITE=;
USER=unknown;
FORMAT=text;
GUISE=transmit;
KEY=PSAS-Avionics_Module-D-Block_6_Machining_Asm;
FILE=PSAS-Avionics_Module-D-Block_6_Machining_Asm.x_t;
DATE=Sun Feb 05 18:44:48 2012;
**PART2;
SCH=SCH_2201256_20000;
USFLD_SIZE=0;
**PART3;
**END_OF_HEADER*****************************************************************
T51 : TRANSMIT FILE created by modeller version 220125623 SCH_2201256_20000_1300
6186 0 10 255 1 11 2 3 0 0 0 0 0 1e3 1e-8 0 0 0 1 0 1 4 81 255 1 2 11 5 1 0 0 0
 0 0 70 11 CI9 list_type0 0 1 uI10 notransmit0 0 1 lCCCDCCDI12 finger_index0 0 1
 dI12 finger_block1012 0 CZ3 0 4 T1 0 0 1 20 1 6 6 11 255 4 9 0 1 7 8 1 9 0 9 0
 12 27 CCCCCCCCCCCCCCCCCCCCCCCA16 index_map_offset0 0 1 dA9 index_map82 0 A17 no
de_id_index_map82 0 A20 schema_embedding_map82 0 Z7 1648 10 11 0 0 0 0 1e3 1e-8
 4 12 0 1 0 1 1 13 14 15 16 17 18 19 0 0 0 0 100 255 8 10 4 0 0 799778333016732e
-31 -1 0 1 799778333016732e-31 0 0 0 1 .121445419920059 -.020828 -.04445 1 3 ?11
 9 7 0 1 7 20 1 21 4 21 4 100 20 8 9 0 0 799778333016732e-31 -1 0 1 799778333016
732e-31 0 0 0 1 .0833454199200589 -.020828 -.04445 1 3 ?11 21 5 0 1 7 22 1 23 9
 23 9 100 22 6 21 0 0 799778333016732e-31 -1 0 1 799778333016732e-31 0 0 0 1 .04
52454199200589 -.020828 -.04445 1 3 ?11 23 3 0 1 7 24 1 25 21 0 21 100 24 4 23 0
 0 799778333016732e-31 -1 0 1 799778333016732e-31 0 0 0 1 .0071454199200589 -.02
0828 -.04445 1 3 ?11 25 1 0 1 12 26 1 0 23 0 0 12 12 231 27 28 0 0 0 0 1e3 1e-8
 25 29 7 1 0 1 1 30 31 32 33 34 35 36 0 0 0 0 100 26 2 25 0 0 1 0 0 0 1 0 0 0 1
 0 0 -.0762 1 1 ?81 1 27 231 5 12 37 0 0 0 38 70 28 0 4 T12 0 0 4 20 1 39 39 13
 255 30 94 0 12 0 40 0 0 41 0 50 255 31 93 0 40 42 0 0 +0 0 .03175 1 12246467991
47352e-31 0 -1224646799147352e-31 1 0 30 255 32 89 0 35 43 0 0 +155530143491714e
-32 -.0127 .03175 0 0 -1 29 255 33 70 0 44 45 0 0 0 0 19 255 34 28 0 12 41 0 46
 V16 255 35 77 0 ?47 0 48 32 0 0 12 18 255 36 25 0 49 0 50 51 ?12 17 255 49 0 52
 53 54 36 55 56 0 57 +18 50 22 0 54 36 58 59 ?12 29 51 27 0 36 59 60 0 0 .03175
 29 59 24 0 50 61 51 .14605 0 .03175 29 60 73 0 62 51 63 155530143491714e-32 -.0
127 0 18 62 64 0 64 65 0 60 ?12 29 63 72 0 65 60 45 .14605 -.0127 0 18 65 63 0 6
6 67 62 63 ?12 29 45 71 0 67 63 33 .14605 0 0 18 67 62 0 68 44 65 45 ?12 17 68 0
 69 70 71 67 72 73 0 74 +18 44 61 0 75 76 67 33 ?12 17 75 0 77 57 74 44 78 79 0
 80 +18 76 16 0 81 58 44 82 ?12 17 81 0 83 47 84 76 85 86 0 53 -18 58 19 0 85 50
 76 61 ?12 29 82 18 0 76 0 61 155530143491714e-32 -.0127 .03175 29 61 21 0 58 82
 59 .14605 -.0127 .03175 17 85 0 52 54 53 58 81 86 0 84 +15 255 52 3 0 53 87 0 1
7 54 0 52 49 85 50 88 89 0 70 +17 53 0 52 85 49 76 90 91 0 92 +16 86 7 0 ?85 89
 91 93 0 0 12 17 84 0 83 81 66 58 71 48 0 88 -15 83 82 0 66 94 0 17 66 0 83 84 4
7 65 64 95 0 71 +17 71 0 69 68 88 65 84 48 0 72 +16 48 76 0 ?71 35 96 43 0 0 12
 17 88 0 69 71 70 58 54 89 0 0 -15 69 80 0 68 97 0 17 70 0 69 88 68 50 74 96 0 5
5 -16 89 10 0 ?54 56 86 98 0 0 12 16 56 13 0 ?49 99 89 100 0 0 12 30 98 11 0 89
 93 100 0 +.14605 0 .03175 0 1 0 30 93 8 0 86 101 98 0 +155530143491714e-32 -.01
27 .03175 1 0 0 30 100 14 0 56 98 102 0 +0 0 .03175 -1 0 0 30 102 69 0 103 100 1
04 0 +0 0 0 1224646799147352e-31 -1 0 16 103 57 0 ?105 95 0 102 0 0 12 30 104 68
 0 95 102 106 0 +155530143491714e-32 -.0127 0 1 0 0 16 95 53 0 ?66 73 103 104 0
 0 12 30 106 67 0 73 104 107 0 +.14605 0 0 0 1 0 16 73 49 0 ?68 79 95 106 0 0 12
 30 107 66 0 79 106 108 0 +0 0 0 -1 0 0 16 79 45 0 ?75 91 73 107 0 0 12 30 108 8
6 0 99 107 109 0 +0 0 .03175 0 0 -1 16 99 74 0 ?80 96 56 108 0 0 12 30 109 87 0
 96 108 43 0 +.14605 0 .03175 0 0 -1 16 96 75 0 ?74 48 99 109 0 0 12 30 43 88 0
 48 109 32 0 +.14605 -.0127 .03175 0 0 -1 17 74 0 77 75 55 67 70 96 0 78 +15 77
 78 0 75 110 0 17 55 0 77 74 57 50 49 56 0 0 -17 78 0 111 72 112 67 75 79 0 0 -1
5 111 44 0 112 113 0 17 72 0 111 64 78 65 68 73 0 0 -17 112 0 111 78 64 44 105 1
03 0 0 -17 64 0 111 112 72 62 66 95 0 47 -17 105 0 114 92 80 62 112 103 0 0 +15
 114 84 0 105 40 0 17 92 0 114 90 105 76 47 35 0 0 -17 80 0 114 105 90 44 57 99
 0 112 +17 90 0 114 80 92 36 53 91 0 0 -17 57 0 77 55 75 36 80 99 0 90 -16 91 4
 0 ?53 86 79 101 0 0 12 30 101 5 0 91 0 93 0 +0 0 .03175 1224646799147352e-31 -1
 0 17 47 0 83 66 81 62 92 35 0 105 +14 255 40 85 115 ?94 0 114 30 31 -0 0 94 0 4
6 81 1 115 225 116 40 117 0 0 118 119 14 94 83 118 ?97 40 83 30 42 -0 0 97 40 46
 13 46 29 0 0 0 0 0 0 34 40 81 1 118 226 116 94 120 0 115 121 122 14 97 81 121 ?
110 94 69 30 123 -0 0 110 94 46 50 42 92 0 94 123 31 0 +155530143491714e-32 -.01
27 .03175 0 1 0 0 0 1 50 123 91 0 97 124 42 0 +.14605 0 .03175 -1 0 0 0 0 1 50 1
24 90 0 110 125 123 0 +0 0 .03175 0 -1 0 0 0 -1 14 110 79 126 ?87 97 77 30 124 -
0 0 87 97 46 50 125 65 0 113 127 124 0 +155530143491714e-32 -.0127 0 0 0 1 1 0 0
 14 113 43 128 ?0 87 111 30 125 -0 0 0 87 46 50 127 2 0 87 0 125 0 +155530143491
714e-32 -.0127 .03175 0 0 1 1 0 0 14 87 1 129 ?113 110 52 30 127 +0 0 113 110 46
 81 1 129 229 116 87 130 0 126 128 131 80 255 1 116 0 132 8001 0 0 0 0 3 5 0 0 0
 FFFFTFTFFFFFFF2 81 1 130 223 133 87 0 129 134 0 135 81 1 126 228 116 110 136 0
 121 129 137 81 1 128 230 116 113 134 0 129 0 138 83 255 3 131 .796078431372549
 .823529411764706 .937254901960784 81 1 134 221 133 113 0 128 136 130 139 83 3 1
38 .796078431372549 .823529411764706 .937254901960784 80 1 133 140 141 9000 1 1
 1 1 1 1 1 1 0 FFFFTFTFFFFFFF1 81 1 136 219 133 110 0 126 142 134 143 82 255 1 1
39 790823040 81 1 142 217 133 97 0 121 120 136 144 82 1 143 793903232 81 1 121 2
27 116 97 142 0 118 126 145 81 1 120 215 133 94 0 118 117 142 146 82 1 144 79416
5376 81 1 117 213 133 40 0 115 0 120 147 82 1 146 794427520 82 1 147 794689664 8
3 3 145 .796078431372549 .823529411764706 .937254901960784 79 255 14 141 SWEntUn
changed83 3 137 .796078431372549 .823529411764706 .937254901960784 82 1 135 7873
49632 79 15 132 SDL/TYSA_COLOUR83 3 122 .796078431372549 .823529411764706 .93725
4901960784 83 3 119 .796078431372549 .823529411764706 .937254901960784 19 41 95
 0 12 0 34 30 S74 4 CI16 index_map_offset0 0 1 dCCZ20 39 4 0 0 130 37 128 27 0 0
 0 0 0 0 0 0 0 0 0 0 0 0 0 0 81 2 37 162 148 12 0 27 0 0 149 0 80 2 148 150 151
 8004 0 0 0 0 3 5 0 0 0 FFTFFFFFFFFFFF2 3 83 1 149 1e3 79 16 151 SDL/TYSA_DENSIT
Y80 1 5 152 153 8017 0 0 0 0 0 0 0 0 0 TTTTTTTTTTTTTF3 84 255 19 38 D-Block_Meta
l_Basis79 13 153 SDL/TYSA_NAME81 1 10 1648 5 7 154 0 0 0 155 70 11 0 4 T7 0 0 5
 20 1 156 156 13 13 114 0 7 0 157 0 0 158 0 50 14 1097 0 159 160 0 0 -.014986 .0
0460541992005886 0 .707106781186549 -.707106781186546 0 .707106781186546 .707106
781186549 0 30 15 1076 0 18 161 0 0 --.0217253549800146 -.03210593505995585 0 -.
707106781186546 -.707106781186549 0 29 16 1141 0 19 162 0 .0171544994814082 -.01
714606357561655 .0187198 19 17 34 0 7 158 0 163 V16 18 1074 0 ?164 0 165 15 0 0
 7 18 19 1139 0 166 0 167 16 ?7 17 166 0 168 169 170 19 171 172 0 173 +18 167 10
66 0 174 19 175 162 ?7 17 174 0 176 177 178 167 179 165 0 180 +18 175 1058 0 181
 167 182 183 ?7 29 162 1068 0 167 183 16 .009398 -.000982580079941164 0 29 183 1
060 0 175 184 162 .009398 -.000982580079941157 .0187198 29 184 1052 0 182 185 18
3 .014986 .00460541992005886 .0187198 18 182 1050 0 186 175 187 184 ?7 29 185 10
49 0 187 188 184 .014986 .00460541992005887 0 18 187 1047 0 164 182 189 185 ?7 2
9 188 833 0 189 190 185 .009398 -.00938956409420835 0 18 189 831 0 177 187 191 1
88 ?7 29 190 176 0 191 192 188 .0180983115580606 .00460541992005886 0 18 191 174
 0 193 189 194 190 ?7 29 192 331 0 194 195 190 .0180983115580606 .00460541992005
886 .0187198 18 194 262 0 196 191 197 192 ?7 29 195 1012 0 197 198 192 .009398 -
.00938956409420834 .0187198 18 197 917 0 199 194 200 195 ?7 29 198 1278 0 200 20
1 195 .01839132351999385 -.0159092395370309 0 18 200 1213 0 202 197 203 198 ?7 2
9 201 1279 0 203 204 198 .01839132351999385 -.0159092395370309 .0187198 18 203 1
217 0 170 200 205 201 ?7 29 204 1284 0 205 0 201 .0171544994814082 -.01714606357
561655 0 18 205 1214 0 169 203 0 204 ?7 17 169 0 168 202 166 205 173 206 0 207 -
15 168 1226 0 166 208 0 17 202 0 168 170 169 200 207 209 0 210 -17 173 0 211 199
 212 19 169 206 0 213 +16 206 1180 0 ?173 214 209 215 0 0 7 17 207 0 216 217 218
 205 202 209 0 212 +15 216 1156 0 207 219 220 17 217 0 216 180 207 189 212 221 0
 0 -17 218 0 216 207 222 200 193 223 0 0 -16 209 1177 0 ?207 206 172 224 0 0 7 1
7 212 0 211 173 225 205 217 221 0 0 +15 211 518 0 212 226 0 17 225 0 211 212 199
 189 227 228 0 217 +16 221 832 0 ?212 229 230 231 0 0 7 16 229 1053 0 ?232 233 2
21 234 0 0 7 16 230 1162 0 ?196 221 223 235 0 0 7 30 231 422 0 221 236 237 0 +-.
02032413702711895 .02033257293291055 0 .707106781186548 -.707106781186547 0 31 2
55 236 80 0 223 235 231 0 +-.047244 -.00658729003997057 0 0 0 1 -1 0 0 .066294 3
8 255 237 610 0 238 231 239 0 +160 240 241 242 242 16 238 625 0 ?243 244 245 237
 0 0 7 38 239 657 0 246 237 247 0 +160 248 249 250 250 51 255 160 110 0 157 251
 14 252 --.047244 -.00658729003997057 .0187198 0 0 -1 .066294 -1 0 0 51 240 650
 0 253 248 254 255 +.01265173575789982 -.01264329985210816 .0042799 -.7071067811
86547 -.707106781186548 0 .00135255 .707106781186548 -.707106781186547 0 40 255
 21 241 0 1 21 .000173184631433406 .375023132617256 ??.01903093950099 -.00817689
066280571 .0042799 .0190325031229301 -.00811030343329308 .004629560932421 .01903
636393221235 -.00793183197441701 .00493538364846495 .01904301048942465 -.0075499
303543688 .00527343535647006 .0190493098992458 -.00688977739930705 .005553473795
95421 .01904858920362895 -.00615479416842845 .00563089646044662 .019037249493626
6 -.00528713560159515 .00544536569729555 .0190260353713649 -.00480491862019071 .
00515031599810373 .01901780361759855 -.00452142040642535 .00481651377149864 .019
01357357778515 -.004389932630628945 .004481021266784275 .01901332420464485 -.004
38242604403278 .00411943486167357 .01901676621145505 -.00448841008368592 .003802
83258443705 .01902301054072805 -.00469579592286626 .003513647860363215 .01903399
43119029 -.00513061368903707 .003188818787244345 .0190456724387854 -.00582981795
564283 .00296028550760381 .0190499998866775 -.00658341380404187 .002948681896251
775 .0190446250805473 -.00743145882086476 .003215966745897135 .01903804448748265
 -.00784626365342229 .003527239443196235 .0190332270960695 -.00807846556821348 .
003856497028734545 .0190310833979308 -.00817087982186324 .00417404610060196 .019
03093950099 -.00817689066280572 .0042799 41 255 1 242 H.01903093950099 -.0081768
9066280572 .0042799 14 253 628 256 ?257 226 258 13 240 -0 0 257 226 163 51 248 6
97 0 257 259 240 260 +.01265173575789982 -.01264329985210816 .0144399 -.70710678
1186547 -.707106781186548 0 .00135255 .707106781186548 -.707106781186547 0 50 25
4 546 0 226 240 261 0 +.00727621774823213 -.00726778184244048 0 .707106781186547
 .707106781186548 0 -.707106781186548 .707106781186547 0 141 255 255 237 255 255
 240 14 226 514 262 ?253 263 264 13 254 -0 0 253 263 163 51 261 394 0 263 254 26
5 0 +.0136525 -.001507290039970555 .0187198 0 0 1 .00135255 1 0 0 14 263 385 266
 ?226 267 268 13 261 -0 0 226 267 163 50 265 303 0 267 261 269 0 +0 .00460541992
005886 0 0 -1 0 0 0 -1 14 267 274 270 ?263 219 271 13 265 -0 0 263 219 163 50 26
9 2 0 272 265 251 0 +-.047244 -.00658729003997057 .0187198 0 0 -1 -1 0 0 14 272
 1 273 ?219 157 274 13 269 -0 0 219 157 163 50 251 78 0 219 269 160 0 +-.047244
 -.00658729003997057 0 0 0 -1 -1 0 0 14 219 51 275 ?267 272 216 13 251 +0 0 267
 272 163 81 1 275 1638 116 219 276 0 273 270 277 13 163 35 0 0 0 0 0 0 17 157 14
 157 97 278 ?272 0 279 13 160 -0 0 272 0 163 81 1 278 1636 116 157 280 0 0 273 2
81 15 279 730 0 282 157 283 17 282 0 279 282 282 0 284 285 0 0 +15 283 655 0 286
 157 287 17 286 0 283 286 286 0 288 246 0 0 +15 287 608 0 243 157 289 17 243 0 2
87 243 243 0 290 238 0 0 +15 289 96 0 291 157 0 17 291 0 289 210 292 203 196 230
 0 0 -17 210 0 289 193 291 200 170 214 0 218 +17 292 0 289 291 193 194 293 294 0
 0 +17 196 0 295 296 171 194 291 230 0 297 +15 295 3 0 213 272 0 17 296 0 295 18
1 196 182 297 298 0 0 -17 171 0 295 196 213 203 166 172 0 291 -17 297 0 271 293
 232 194 296 298 0 292 +15 271 277 0 299 267 0 17 293 0 271 299 297 191 292 294
 0 0 -17 232 0 271 297 299 182 300 229 0 296 +16 298 1051 0 ?297 301 302 303 0 0
 7 16 301 1048 0 ?222 294 298 304 0 0 7 16 302 376 0 ?305 298 306 307 0 0 7 30 3
03 320 0 298 304 308 0 +0 .00460541992005886 .0187198 1 0 0 30 304 324 0 301 307
 303 0 +0 .00460541992005886 0 1 0 0 30 308 313 0 294 303 235 0 -.01809831155806
06 .00460541992005886 .0187198 0 0 -1 16 294 220 0 ?292 223 301 308 0 0 7 31 235
 14 0 230 308 236 0 +-.047244 -.00658729003997057 .0187198 0 0 1 -1 0 0 .066294
 16 223 1153 0 ?193 230 294 236 0 0 7 17 193 0 289 292 210 191 218 223 0 222 +17
 222 0 216 218 164 191 299 301 0 293 +17 164 0 216 222 180 187 309 18 0 299 +17
 299 0 271 232 293 187 222 301 0 300 -17 300 0 310 309 186 187 232 229 0 0 -15 3
10 1086 0 309 159 0 17 309 0 310 179 300 167 164 18 0 0 -17 186 0 310 300 179 18
2 181 233 0 232 -17 179 0 310 186 309 175 174 165 0 0 -17 181 0 295 311 296 175
 186 233 0 178 +16 233 1061 0 ?181 165 229 312 0 0 7 16 165 1069 0 ?174 18 233 1
61 0 0 7 30 312 1063 0 233 234 161 0 -.014986 .00460541992005886 .0187198 .70710
6781186546 .707106781186549 0 30 234 1055 0 229 247 312 0 +.014986 .004605419920
05886 0 0 0 1 30 161 1071 0 165 312 15 0 +.009398 -.000982580079941157 0 0 0 -1
 31 247 828 0 313 239 234 0 -.009398 -.00658729003997057 .0093599 1 799778333016
732e-31 0 -799778333016732e-31 1 0 .0017272 16 313 885 0 ?314 228 315 247 0 0 7
 17 314 0 316 314 314 0 317 313 0 0 +16 228 886 0 ?225 285 313 318 0 0 7 16 315
 887 0 ?180 313 319 320 0 0 7 17 180 0 216 164 217 167 177 315 0 309 +16 319 870
 0 ?178 315 214 321 0 0 7 30 320 1002 0 315 322 321 0 +.009398 .0046054199200588
6 0 -799778333016732e-31 1 0 30 322 1263 0 214 215 320 0 +.01839132351999385 -.0
159092395370309 .0187198 0 0 -1 30 321 998 0 319 320 318 0 +.009398 .00460541992
005886 .0187198 -799778333016732e-31 1 0 30 318 992 0 228 321 323 0 +.009398 -.0
0938956409420834 0 0 0 -1 38 323 797 0 285 318 324 0 +160 259 325 326 326 16 285
 755 0 ?282 327 228 323 0 0 7 31 324 699 0 327 323 328 0 +.01265173575789982 -.0
1264329985210816 .0144399 -.707106781186547 -.707106781186548 0 .707106781186548
 -.707106781186547 0 .001352549999999986 51 259 796 0 329 330 248 331 +0 -.00658
729003997057 .0093599 -1 0 0 .0017272 0 0 1 40 20 325 0 1 20 974088541980278e-19
 .337471142600887 ??.01905 -.00658729003997057 .0110871 .01904753570424685 -.006
01568705488239 .01098977418761026 .01904122242025735 -.00550852931718986 .010708
78663088696 .01903382370429865 -.00512287171793763 .01027570501095712 .019028582
175409 -.00490227140397206 .00973928375866357 .0190277971641847 -.00487167451510
433 .00916019218633736 .0190318098831625 -.00503440230066162 .008603752190968 .0
190388619970356 -.00537211866031595 .00813247246321086 .0190458656700012 -.00584
692158224506 .00779942751167952 .01904975001540855 -.00640523264649369 .00764232
177893396 .01904881351296305 -.00698391648324445 .00767885648346157 .01904346911
171995 -.00751781395840336 .00790479001198382 .01903605555087555 -.0079469488842
5849 .00829474852384762 .01902982017530225 -.00822289248913079 .0088049004790082
7 .0190274986177158 -.00831439946386326 .00937758835495491 .01903010668000825 -.
00821124193792995 .00994811770894294 .0190364997944496 -.00792511775607097 .0104
523453496782 .0190438792224437 -.0074881253138794 .01083357420052112 .0190490105
7667015 -.00694948429931656 .01104869695597094 .01905 -.00658729003997057 .01108
71 41 1 326 H.01905 -.00658729003997057 .0110871 14 329 765 332 ?333 257 316 13
 259 -0 0 333 257 163 50 330 980 0 333 334 259 0 +.009398 .00460541992005886 0 1
 799778333016732e-31 0 -799778333016732e-31 1 0 141 331 323 331 331 259 14 333 9
45 335 ?159 329 336 13 330 -0 0 159 329 163 50 334 1260 0 208 0 330 0 +.01715449
94814082 -.01714606357561655 0 -.707106781186548 .707106781186547 0 -.7071067811
86547 -.707106781186548 0 14 208 1223 337 ?0 159 168 13 334 -0 0 0 159 163 81 1
 337 1647 116 208 338 0 339 0 340 14 159 1085 339 ?208 333 310 13 14 +0 0 208 33
3 163 81 1 339 1646 116 159 341 0 335 337 342 81 1 341 1632 133 159 0 339 338 34
3 344 81 1 335 1645 116 333 345 0 332 339 346 83 3 342 .968627450980392 .8823529
41176471 0 81 1 345 1628 133 333 0 335 347 338 348 81 1 332 1644 116 329 347 0 3
49 335 350 83 3 346 .968627450980392 .882352941176471 0 81 1 347 1626 133 329 0
 332 280 345 351 81 1 349 1643 116 257 343 0 256 332 352 83 3 350 .9686274509803
92 .882352941176471 0 14 257 675 349 ?329 253 353 13 248 -0 0 329 253 163 81 1 3
43 1634 133 257 0 349 341 0 354 81 1 256 1642 116 253 355 0 262 349 356 83 3 352
 .968627450980392 .882352941176471 0 81 1 355 1611 133 253 0 256 0 357 358 81 1
 262 1641 116 226 357 0 266 256 359 83 3 356 .968627450980392 .882352941176471 0
 81 1 357 1613 133 226 0 262 355 360 361 81 1 266 1640 116 263 360 0 270 262 362
 83 3 359 .968627450980392 .882352941176471 0 81 1 360 1616 133 263 0 266 357 36
3 364 81 1 270 1639 116 267 363 0 275 266 365 83 3 362 .968627450980392 .8823529
41176471 0 81 1 363 1618 133 267 0 270 360 366 367 83 3 365 .968627450980392 .88
2352941176471 0 81 1 366 1620 133 272 0 273 363 276 368 82 1 367 1123550466 81 1
 273 1637 116 272 366 0 278 275 369 81 1 276 1622 133 219 0 275 366 280 370 82 1
 368 -1132526328 81 1 280 1624 133 157 0 278 276 347 371 82 1 370 -1132395256 82
 1 371 -1132133112 83 3 369 .968627450980392 .882352941176471 0 82 1 364 -177078
1447 82 1 361 -1132919544 82 1 358 -1683815170 82 1 354 -1681062658 15 353 678 0
 372 257 373 17 372 0 353 372 372 0 374 327 0 0 +15 373 679 0 288 257 0 17 288 0
 373 288 288 0 286 246 0 0 -16 246 672 0 ?286 245 327 239 0 0 7 16 245 626 0 ?37
5 238 246 328 0 0 7 16 327 673 0 ?372 246 285 324 0 0 7 17 375 0 258 375 375 0 3
76 245 0 0 +31 328 652 0 245 324 377 0 +.01265173575789982 -.01264329985210816 .
0042799 -.707106781186547 -.707106781186548 0 .707106781186548 -.707106781186547
 0 .001352549999999986 30 377 558 0 244 328 378 0 +.00727621774823213 -.00726778
184244048 .0187198 -.707106781186548 .707106781186547 0 16 244 1140 0 ?199 306 2
38 377 0 0 7 31 378 396 0 306 377 307 0 +.0136525 -.001507290039970555 .0187198
 0 0 1 1 0 0 .001352549999999986 16 306 375 0 ?379 302 244 378 0 0 7 31 307 395
 0 302 378 304 0 +.0136525 -.001507290039970555 0 0 0 1 1 0 0 .00135255 17 379 0
 380 379 379 0 381 306 0 0 +15 380 389 0 379 263 0 17 381 0 274 381 381 0 379 30
6 0 0 -15 274 368 0 381 272 295 17 199 0 211 225 173 197 213 244 0 227 +17 213 0
 295 171 311 19 199 244 0 0 -17 227 0 176 178 177 197 225 228 0 311 -15 176 949
 0 178 333 0 17 178 0 176 174 227 175 311 319 0 179 +17 177 0 176 227 174 189 18
0 315 0 225 -17 311 0 295 213 181 197 178 319 0 0 -15 258 631 0 375 253 382 17 3
76 0 383 376 376 0 375 245 0 0 -15 383 616 0 376 226 211 15 382 632 0 290 253 0
 17 290 0 382 290 290 0 243 238 0 0 -17 374 0 264 374 374 0 372 327 0 0 -15 264
 663 0 374 226 383 82 1 351 -1654848255 81 1 338 1630 133 208 0 337 345 341 384
 82 1 348 -1618082558 82 1 384 -1908341496 82 1 344 -1605827326 83 3 340 .968627
450980392 .882352941176471 0 15 336 948 0 317 333 176 17 317 0 336 317 317 0 314
 313 0 0 -15 316 826 0 314 329 385 15 385 770 0 284 329 0 17 284 0 385 284 284 0
 282 285 0 0 -16 214 1176 0 ?210 319 206 322 0 0 7 30 215 1269 0 206 386 322 0 +
.0171544994814082 -.01714606357561655 0 0 0 1 30 386 1270 0 172 224 215 0 +.0171
544994814082 -.01714606357561655 .0187198 -.707106781186547 -.707106781186548 0
 16 172 1185 0 ?166 209 0 386 0 0 7 30 224 1274 0 209 0 386 0 +.0171544994814082
 -.01714606357561655 0 -.707106781186547 -.707106781186548 0 17 305 0 220 305 30
5 0 387 302 0 0 +15 220 362 0 305 219 0 17 387 0 268 387 387 0 305 302 0 0 -15 2
68 388 0 387 263 380 17 170 0 168 166 202 203 210 214 0 171 -83 3 281 .968627450
980392 .882352941176471 0 83 3 277 .968627450980392 .882352941176471 0 141 260 2
39 260 260 248 141 252 237 388 389 160 141 388 323 389 252 160 141 389 239 252 3
88 160 40 21 249 0 1 21 .0001731846314334135 .3750231326172645 ??.01903093950099
 -.00817689066280571 .0144399 .01903250312293005 -.00811030343329308 .0147895609
32421 .01903636393221235 -.007931831974417 .01509538364846495 .01904301048942465
 -.0075499303543688 .01543343535647005 .0190493098992458 -.00688977739930704 .01
57134737959542 .01904858920362895 -.00615479416842843 .0157908964604466 .0190372
4949362655 -.00528713560159514 .01560536569729555 .0190260353713649 -.0048049186
201907 .0153103159981037 .01901780361759855 -.00452142040642533 .014976513771498
62 .01901357357778515 -.004389932630628945 .01464102126678426 .01901332420464485
 -.00438242604403277 .01427943486167356 .0190167662114551 -.004488410083685915 .
01396283258443704 .01902301054072805 -.00469579592286625 .0136736478603632 .0190
339943119029 -.00513061368903707 .01334881878724434 .0190456724387854 -.00582981
795564284 .0131202855076038 .0190499998866775 -.00658341380404188 .0131086818962
5178 .0190446250805473 -.00743145882086477 .01337596674589714 .01903804448748265
 -.00784626365342229 .01368723944319624 .0190332270960695 -.00807846556821347 .0
1401649702873456 .0190310833979308 -.00817087982186324 .01433404610060196 .01903
093950099 -.00817689066280571 .0144399 41 1 250 H.01903093950099 -.0081768906628
0571 .0144399 19 158 115 0 7 0 17 13 S74 20 156 5 0 0 343 390 154 337 10 0 0 0 0
 0 0 0 0 0 0 0 0 0 0 0 81 2 390 1111 148 7 0 154 0 0 391 0 81 3 154 1302 392 7 3
90 10 0 0 393 394 395 80 3 392 396 397 9000 0 1 0 0 1 1 1 1 0 FFTFFFFFFFFFFF1 1
 1 82 1 393 113701 82 1 394 1245 82 5 395 113797 113787 113782 113874 113835 79
 13 397 TempAxisFaces83 1 391 27e2 84 30 155 PSAS-Avionics_Module-D_Block_674 20
 6 1 0 0 2 0 0 0 0 0 0 0 0 0 0 0 0 0 0 0 0 0 0 0 1 0 
