**ABCDEFGHIJKLMNOPQRSTUVWXYZabcdefghijklmnopqrstuvwxyz**************************
**PARASOLID !"#$%&'()*+,-./:;<=>?@[\]^_`{|}~0123456789**************************
**PART1;
MC=AMD64;
MC_MODEL=Intel64 Family 6 Model 42 Stepping 7, GenuineIntel;
MC_ID=unknown;
OS=Windows_NT;
OS_RELEASE=unknown;
FRU=Parasolid Version 22.1, build 256, 12- 1-2010;
APPL=SolidWorks 2011-2011006;
SITE=;
USER=unknown;
FORMAT=text;
GUISE=transmit;
KEY=RF_Sheild_Plate_SM;
FILE=RF_Sheild_Plate_SM.x_t;
DATE=Fri May 04 22:51:08 2012;
**PART2;
SCH=SCH_2201256_20000;
USFLD_SIZE=0;
**PART3;
**END_OF_HEADER*****************************************************************
T51 : TRANSMIT FILE created by modeller version 220125623 SCH_2201256_20000_1300
6186 0 12 27 CCCCCCCCCCCCCCCCCCCCCCCA16 index_map_offset0 0 1 dA9 index_map82 0
 A17 node_id_index_map82 0 A20 schema_embedding_map82 0 Z1 595 0 2 0 0 0 0 1e3 1
e-8 0 3 0 1 0 1 1 4 5 6 7 8 9 10 0 0 0 0 70 11 CI9 list_type0 0 1 uI10 notransmi
t0 0 1 lCCCDCCDI12 finger_index0 0 1 dI12 finger_block1012 0 CZ2 0 4 T1 0 0 1 20
 1 11 11 13 255 4 194 0 1 0 12 0 0 13 0 50 255 5 190 0 12 14 0 0 +20250024682621
2e-32 -.1029208 -.0254 0 1 0 0 0 -1 31 255 6 445 0 15 16 0 0 +.004445 -.005715 -
.0270002 0 0 1 0 1 0 .00177183190344489 29 255 7 141 0 17 18 0 479500346215489e-
47 0 -.0270002 19 255 8 58 0 1 13 0 19 V16 255 9 155 0 ?20 0 21 22 0 0 1 18 255
 10 52 0 23 0 24 25 ?1 17 255 23 0 26 27 28 10 29 30 0 31 -18 24 49 0 32 10 33 3
4 ?1 29 25 54 0 10 34 35 479500346215489e-47 0 -.0254 29 34 51 0 24 36 25 .01206
5 0 -.0254 29 35 146 0 37 25 38 202500246826212e-32 -.1029208 -.0270002 18 37 12
7 0 39 40 0 35 ?1 29 38 145 0 40 35 41 .012065 -.1029208 -.0270002 18 40 126 0 4
2 43 37 38 ?1 29 41 144 0 43 38 44 .012065 -.0863854 -.0270002 18 43 125 0 45 46
 40 41 ?1 29 44 143 0 46 41 18 .012065 -.0165354 -.0270002 18 46 124 0 47 48 43
 44 ?1 29 18 142 0 48 44 7 .012065 0 -.0270002 18 48 123 0 49 17 46 18 ?1 17 49
 0 50 51 52 48 53 54 0 55 +18 17 122 0 56 57 48 7 ?1 17 56 0 58 59 55 17 60 61 0
 27 +18 57 37 0 29 62 17 63 ?1 17 29 0 64 65 31 57 23 30 0 28 +18 62 40 0 65 66
 57 67 ?1 29 63 39 0 57 0 67 202500246826212e-32 -.1029208 -.0254 29 67 42 0 62
 63 68 .012065 -.1029208 -.0254 29 68 45 0 66 67 36 .012065 -.0863854 -.0254 18
 66 43 0 69 33 62 68 ?1 29 36 48 0 33 68 34 .012065 -.0165354 -.0254 18 33 46 0
 70 24 66 36 ?1 17 70 0 64 32 69 33 71 72 0 73 +15 255 64 3 0 29 74 0 17 32 0 64
 31 70 24 75 76 0 51 +17 69 0 64 70 65 66 77 78 0 79 +17 71 0 80 81 73 66 70 72
 0 0 -16 72 19 0 ?70 76 78 82 0 0 1 17 73 0 80 71 47 33 52 83 0 75 -15 80 164 0
 47 84 0 17 47 0 80 73 81 46 85 86 0 52 +17 52 0 50 49 75 46 73 83 0 53 +16 83 1
52 0 ?52 87 88 89 0 0 1 17 75 0 50 52 51 33 32 76 0 0 -15 50 162 0 49 90 0 17 51
 0 50 75 49 24 55 88 0 91 -16 76 22 0 ?32 92 72 93 0 0 1 16 92 25 0 ?31 94 76 95
 0 0 1 30 255 93 23 0 76 82 95 0 +.012065 0 -.0254 0 1 0 31 82 20 0 72 96 93 0 +
-.0442833700829048 -.0514604 -.0254 0 0 1 0 1 0 .066294 30 95 26 0 92 93 97 0 +4
79500346215489e-47 0 -.0254 -1 0 0 30 97 136 0 98 95 99 0 +202500246826212e-32 -
.1029208 -.0270002 1 0 0 16 98 105 0 ?42 100 101 97 0 0 1 30 99 135 0 100 97 102
 0 +.012065 -.1029208 -.0270002 -104909677176047e-30 1 0 16 100 101 0 ?45 86 98
 99 0 0 1 31 102 134 0 86 99 103 0 +-.0442833700829048 -.0514604 -.0270002 0 0 1
 0 1 0 .066294 16 86 97 0 ?47 54 100 102 0 0 1 30 103 133 0 54 102 104 0 +.01206
5 0 -.0270002 0 1 0 16 54 93 0 ?49 61 86 103 0 0 1 30 104 132 0 61 103 105 0 +47
9500346215489e-47 0 -.0270002 -1 0 0 16 61 89 0 ?56 106 54 104 0 0 1 30 105 131
 0 106 104 107 0 +633574741766468e-47 -.0165354 -.0270002 931785112854717e-46 -1
 0 16 106 85 0 ?39 30 61 105 0 0 1 30 107 177 0 94 105 108 0 +479500346215489e-4
7 0 -.0254 0 0 -1 16 94 150 0 ?27 88 92 107 0 0 1 30 108 178 0 88 107 89 0 +.012
065 0 -.0254 0 0 -1 16 88 151 0 ?55 83 94 108 0 0 1 30 89 179 0 83 108 109 0 +.0
12065 -.0165354 -.0254 0 0 -1 30 109 180 0 87 89 110 0 +.012065 -.0863854 -.0254
 0 0 -1 16 87 153 0 ?81 21 83 109 0 0 1 30 110 181 0 21 109 22 0 +.012065 -.1029
208 -.0254 0 0 -1 16 21 154 0 ?111 9 87 110 0 0 1 30 22 182 0 9 110 112 0 +20250
0246826212e-32 -.1029208 -.0254 0 0 -1 31 112 291 0 101 22 113 0 +.004445 -.0870
458 -.0270002 0 0 1 0 1 0 .00177183190344489 16 101 297 0 ?114 98 115 112 0 0 1
 31 113 340 0 116 112 16 0 +.004445 -.0972058 -.0270002 0 0 1 0 1 0 .00177183190
344489 16 116 346 0 ?117 118 119 113 0 0 1 31 16 396 0 120 113 6 0 +.004445 -.01
5875 -.0270002 0 0 1 0 1 0 .00177183190344489 16 120 410 0 ?121 122 123 16 0 0 1
 17 121 0 124 121 121 0 125 120 0 0 +16 122 347 0 ?126 119 120 127 0 0 1 16 123
 412 0 ?128 120 129 130 0 0 1 17 128 0 131 128 128 0 132 123 0 0 +16 129 411 0 ?
133 123 15 134 0 0 1 31 130 438 0 123 134 127 0 +.004445 -.015875 -.026924 0 0 1
 0 1 0 .00189865 31 134 439 0 129 135 130 0 +.004445 -.015875 -.0254 0 0 1 0 1 0
 .00189865 31 127 375 0 122 130 136 0 +.004445 -.0972058 -.0254 0 0 1 0 1 0 .001
89865 31 136 374 0 119 127 137 0 +.004445 -.0972058 -.026924 0 0 1 0 1 0 .001898
65 16 119 348 0 ?138 116 122 136 0 0 1 31 137 326 0 118 136 139 0 +.004445 -.087
0458 -.0254 0 0 1 0 1 0 .00189865 16 118 298 0 ?140 115 116 137 0 0 1 31 139 325
 0 115 137 141 0 +.004445 -.0870458 -.026924 0 0 1 0 1 0 .00189865 16 115 299 0
 ?142 101 118 139 0 0 1 30 141 5 0 30 139 143 0 +479500346215489e-47 -.0514604 -
.0254 -4411578970679425e-47 -1 0 16 30 4 0 ?29 144 106 141 0 0 1 30 143 14 0 144
 141 96 0 +202500246826212e-32 -.1029208 -.0254 1 0 0 16 144 13 0 ?65 78 30 143
 0 0 1 30 96 17 0 78 143 82 0 +.012065 -.1029208 -.0254 -104909677176047e-30 1 0
 16 78 16 0 ?69 72 144 96 0 0 1 17 65 0 64 69 29 62 145 144 0 146 +17 145 0 147
 20 146 57 65 144 0 0 -17 146 0 147 145 42 62 111 21 0 77 -15 147 168 0 42 12 0
 17 42 0 147 146 20 40 148 98 0 111 +17 111 0 149 45 77 40 146 21 0 150 +17 77 0
 149 111 79 62 69 78 0 0 -15 149 166 0 45 151 0 17 79 0 149 77 45 66 81 87 0 71
 -17 45 0 149 79 111 43 150 100 0 81 +17 81 0 80 47 71 43 79 87 0 85 +17 85 0 15
2 150 53 43 47 86 0 0 -15 152 84 0 148 153 0 17 150 0 152 148 85 40 45 100 0 0 -
17 53 0 152 85 60 46 49 54 0 0 -17 60 0 152 53 154 48 56 61 0 0 -17 154 0 152 60
 148 17 39 106 0 0 -17 148 0 152 154 150 37 42 98 0 0 -17 39 0 26 28 27 37 154 1
06 0 20 +15 26 158 0 39 155 0 17 28 0 26 23 39 57 20 9 0 145 -17 27 0 26 39 23 1
7 59 94 0 154 +17 20 0 147 42 145 37 28 9 0 148 +17 59 0 58 91 56 10 27 94 0 0 -
15 58 160 0 56 156 0 17 91 0 58 55 59 24 31 92 0 0 -17 55 0 58 56 91 48 51 88 0
 60 +17 31 0 64 29 32 10 91 92 0 59 +14 255 156 161 157 ?155 90 58 4 158 -0 0 15
5 90 19 81 255 1 157 547 159 156 0 0 160 161 162 14 155 159 161 ?74 156 26 4 163
 -0 0 74 156 19 14 90 163 160 ?156 84 50 4 164 -0 0 156 84 19 50 158 186 0 156 1
63 164 0 +479500346215489e-47 0 -.0254 0 -1 0 0 0 1 13 19 59 0 0 0 0 0 0 8 12 14
 12 169 165 ?151 0 147 4 5 -0 0 151 0 19 81 1 165 543 159 12 0 0 0 166 167 14 15
1 167 166 ?84 12 149 4 14 -0 0 84 12 19 81 1 166 544 159 151 0 0 165 168 169 14
 84 165 168 ?90 151 80 4 170 -0 0 90 151 19 50 14 189 0 151 170 5 0 +.012065 -.1
029208 -.0254 -1 -104909677176047e-30 0 104909677176047e-30 -1 0 51 255 170 188
 0 84 164 14 0 --.0442833700829048 -.0514604 -.0254 0 0 -1 .066294 0 -1 0 50 164
 187 0 90 158 170 0 +.012065 0 -.0254 -1 0 0 0 0 1 81 1 168 545 159 84 0 0 166 1
60 171 80 255 1 159 0 172 8001 0 0 0 0 3 5 0 0 0 FFFFTFTFFFFFFF2 81 1 160 546 15
9 90 0 0 168 157 173 83 255 3 171 .749019607843137 1 .945098039215686 83 3 173 .
749019607843137 1 .945098039215686 79 255 15 172 SDL/TYSA_COLOUR83 3 169 .749019
607843137 1 .945098039215686 83 3 167 .749019607843137 1 .945098039215686 50 163
 185 0 155 174 158 0 +633574741766468e-47 -.0165354 -.0254 1 931785112854717e-46
 0 -931785112854717e-46 1 0 50 174 130 0 153 175 163 0 +-.0442833700829048 -.051
4604 -.0270002 0 0 1 0 1 0 14 153 83 176 ?177 74 178 4 174 -0 0 177 74 19 50 175
 2 0 74 179 174 0 +-.0442833700829048 -.0514604 -.0254 0 0 1 0 1 0 14 74 1 180 ?
153 155 181 4 175 +0 0 153 155 19 52 255 179 323 0 177 182 175 0 +.004445 -.0870
458 -.026924 0 0 1 .00189865 .857167300702112 .515038074910054 0 1 0 14 177 301
 183 ?184 153 185 4 179 -0 0 184 153 19 51 182 324 0 184 186 179 0 +.004445 -.08
70458 -.0254 0 0 1 .00189865 0 1 0 14 184 315 187 ?188 177 189 4 182 -0 0 188 17
7 19 52 186 372 0 188 190 182 0 +.004445 -.0972058 -.026924 0 0 1 .00189865 .857
167300702112 .515038074910054 0 1 0 14 188 350 191 ?192 184 193 4 186 -0 0 192 1
84 19 51 190 373 0 192 194 186 0 +.004445 -.0972058 -.0254 0 0 1 .00189865 0 1 0
 14 192 364 195 ?196 188 197 4 190 -0 0 196 188 19 52 194 436 0 196 198 190 0 +.
004445 -.015875 -.026924 0 0 1 .00189865 .857167300702112 .515038074910054 0 1 0
 14 196 414 199 ?200 192 131 4 194 -0 0 200 192 19 51 198 437 0 200 201 194 0 +.
004445 -.015875 -.0254 0 0 1 .00189865 0 1 0 14 200 428 202 ?203 196 204 4 198 -
0 0 203 196 19 52 201 485 0 203 205 198 0 +.004445 -.005715 -.026924 0 0 1 .0018
9865 .857167300702112 .515038074910054 0 1 0 14 203 463 206 ?207 200 208 4 201 -
0 0 207 200 19 51 205 486 0 207 0 201 0 +.004445 -.005715 -.0254 0 0 1 .00189865
 0 1 0 14 207 477 209 ?0 203 210 4 205 -0 0 0 203 19 81 1 209 558 159 207 0 0 20
6 0 211 15 210 480 0 212 207 213 17 212 0 210 212 212 0 214 215 0 0 -15 213 481
 0 216 207 0 17 216 0 213 216 216 0 217 218 0 0 +17 217 0 181 217 217 0 216 218
 0 0 -16 218 460 0 ?216 215 0 219 0 0 1 16 215 461 0 ?214 15 218 135 0 0 1 31 21
9 488 0 218 0 135 0 +.004445 -.005715 -.0254 0 0 1 0 1 0 .00189865 31 135 487 0
 215 219 134 0 +.004445 -.005715 -.026924 0 0 1 0 1 0 .00189865 17 214 0 208 214
 214 0 212 215 0 0 +16 15 459 0 ?220 129 215 6 0 0 1 17 220 0 178 220 220 0 221
 15 0 0 +15 178 443 0 220 153 124 17 221 0 222 221 221 0 220 15 0 0 -15 222 467
 0 221 203 0 15 124 394 0 121 153 223 15 223 338 0 117 153 224 17 117 0 223 117
 117 0 225 116 0 0 +15 224 289 0 114 153 152 17 114 0 224 114 114 0 226 101 0 0
 +17 226 0 227 226 226 0 114 101 0 0 -15 227 305 0 226 177 0 17 225 0 228 225 22
5 0 117 116 0 0 -15 228 354 0 225 188 0 15 208 466 0 214 203 222 15 181 452 0 21
7 74 229 15 229 403 0 230 74 231 17 230 0 229 230 230 0 133 129 0 0 -15 231 331
 0 232 74 233 17 232 0 231 232 232 0 126 122 0 0 -15 233 282 0 234 74 64 17 234
 0 233 234 234 0 140 118 0 0 -17 140 0 235 140 140 0 234 118 0 0 +15 235 319 0 1
40 184 0 17 126 0 236 126 126 0 232 122 0 0 +15 236 368 0 126 192 0 17 133 0 237
 133 133 0 230 129 0 0 +15 237 432 0 133 200 0 81 1 206 557 159 203 0 0 202 209
 238 83 3 211 .184313725490196 .862745098039216 1 81 1 202 556 159 200 0 0 199 2
06 239 83 3 238 .184313725490196 .862745098039216 1 81 1 199 555 159 196 0 0 195
 202 240 83 3 239 .184313725490196 .862745098039216 1 81 1 195 554 159 192 0 0 1
91 199 241 83 3 240 .184313725490196 .862745098039216 1 81 1 191 553 159 188 0 0
 187 195 242 83 3 241 .184313725490196 .862745098039216 1 81 1 187 552 159 184 0
 0 183 191 243 83 3 242 .184313725490196 .862745098039216 1 81 1 183 551 159 177
 0 0 176 187 244 83 3 243 .184313725490196 .862745098039216 1 81 1 176 550 159 1
53 0 0 180 183 245 83 3 244 .184313725490196 .862745098039216 1 81 1 180 549 159
 74 0 0 161 176 246 83 3 245 .749019607843137 1 .945098039215686 81 1 161 548 15
9 155 0 0 157 180 247 83 3 246 .749019607843137 1 .945098039215686 83 3 247 .749
019607843137 1 .945098039215686 15 204 431 0 132 200 237 17 132 0 204 132 132 0
 128 123 0 0 -15 131 417 0 128 196 248 15 248 418 0 125 196 0 17 125 0 248 125 1
25 0 121 120 0 0 -15 197 367 0 249 192 236 17 249 0 197 249 249 0 138 119 0 0 -1
7 138 0 193 138 138 0 249 119 0 0 +15 193 353 0 138 188 228 15 189 318 0 250 184
 235 17 250 0 189 250 250 0 142 115 0 0 -17 142 0 185 142 142 0 250 115 0 0 +15
 185 304 0 142 177 227 83 3 162 .749019607843137 1 .945098039215686 19 13 195 0
 1 0 8 4 S74 4 CI16 index_map_offset0 0 1 dCCZ20 11 1 0 0 209 0 0 0 0 0 0 0 0 0
 0 0 0 0 0 0 0 0 0 0 1 0 
